PathFileType	4	(X/Y/Z)	 s07c0203.trc
DataRate	CameraRate	NumFrames	NumMarkers	Units	OrigDataRate	OrigDataStartFrame	OrigNumFrames
200	200	4	48	mm	200	1	2000
Frame#	Time	racr			lacr			c7			jug			rlel			rdr			llel			ldr			s2			lic			ric			lasi			rasi			rpsi			lpsi			rgt			lgt			rth1			rth2			rth3			rth4			rlfc			rmfc			rsh1			rsh2			rsh3			rsh4			rlmal			rcal			rtoe			rmt5			lth1			lth2			lth4			lth3			llfc			lmfc			lsh1			lsh2			lsh3			lsh4			llmal			lcal			ltoe			lmt5			SBIKE			LBIKE			RBIKE			
		X1	Y1	Z1	X2	Y2	Z2	X3	Y3	Z3	X4	Y4	Z4	X5	Y5	Z5	X6	Y6	Z6	X7	Y7	Z7	X8	Y8	Z8	X9	Y9	Z9	X10	Y10	Z10	X11	Y11	Z11	X12	Y12	Z12	X13	Y13	Z13	X14	Y14	Z14	X15	Y15	Z15	X16	Y16	Z16	X17	Y17	Z17	X18	Y18	Z18	X19	Y19	Z19	X20	Y20	Z20	X21	Y21	Z21	X22	Y22	Z22	X23	Y23	Z23	X24	Y24	Z24	X25	Y25	Z25	X26	Y26	Z26	X27	Y27	Z27	X28	Y28	Z28	X29	Y29	Z29	X30	Y30	Z30	X31	Y31	Z31	X32	Y32	Z32	X33	Y33	Z33	X34	Y34	Z34	X35	Y35	Z35	X36	Y36	Z36	X37	Y37	Z37	X38	Y38	Z38	X39	Y39	Z39	X40	Y40	Z40	X41	Y41	Z41	X42	Y42	Z42	X43	Y43	Z43	X44	Y44	Z44	X45	Y45	Z45	X46	Y46	Z46	X47	Y47	Z47	X48	Y48	Z48	
1	0.0050	447.276739	1434.548659	-74.335169	432.566557	1428.462429	-369.697187	424.133230	1461.978228	-223.410759	390.404586	1323.241254	-220.252429	463.730968	1110.226681	63.131599	689.722660	935.962517	-38.453589	465.983526	1119.035940	-505.245674	697.792379	936.357670	-425.250859	-127.482472	1203.311632	-241.035041	42.340161	1243.242297	-376.919052	37.148946	1226.530817	-86.850065	70.416151	1161.254096	-351.777614	50.339440	1177.162469	-102.482375	-100.491741	1240.959713	-188.612701	-83.068462	1249.576505	-296.576574	-21.972471	1124.327169	-40.100538	-21.875994	1092.039564	-409.592920	122.853980	1072.649345	-41.692066	209.093961	1063.383762	-55.019824	281.707694	1018.163553	-52.881388	218.231550	1094.038705	-74.001107	401.645758	943.041544	-88.990937	395.635680	927.948273	-194.865834	350.080730	809.916586	-64.382627	335.982883	722.950173	-82.811693	284.781582	653.475508	-77.568404	352.055976	720.670318	-119.222697	224.771969	532.497773	-78.376809	152.722258	503.460583	-106.652129	433.977300	431.152807	-119.960020	352.087947	412.098811	-49.155734	39.687827	986.738499	-415.241543	111.591523	936.958794	-418.983114	139.969624	958.219703	-409.887877	148.942402	854.511378	-414.540278	247.699057	700.583846	-381.634991	233.528130	684.084533	-283.732469	156.695754	580.844907	-404.681684	121.201478	504.765967	-384.774659	50.935113	449.188909	-395.171539	124.011237	506.554713	-342.847830	-38.939487	349.082354	-393.894119	-118.519884	333.153613	-360.943452	148.976437	223.143883	-354.913544	65.763455	225.879033	-419.817036	-257.717061	965.024006	-231.916334	-75.589598	83.533375	-437.085266	-81.844889	79.223493	-39.500168	
2	0.0100	447.239827	1434.553169	-74.402669	432.563170	1428.438504	-369.713290	424.102474	1461.990923	-223.442571	390.404367	1323.241817	-220.252431	463.739759	1110.229173	63.055006	689.716891	935.977629	-38.497132	465.968814	1119.016908	-505.285980	697.797448	936.340387	-425.243032	-127.484120	1203.310821	-241.071011	42.284310	1243.230943	-376.905784	37.156992	1226.547877	-86.904075	70.396671	1161.232440	-351.823644	50.349000	1177.163441	-102.504334	-100.555255	1241.008597	-188.612416	-83.082772	1249.575705	-296.634691	-21.960088	1124.348108	-40.133533	-21.907393	1092.042402	-409.618831	122.859360	1072.702084	-41.696551	209.095159	1063.415028	-55.028328	281.678401	1018.243947	-52.840048	218.229483	1094.094720	-74.023124	401.645289	943.078141	-88.993506	395.637077	927.992463	-194.855940	350.087320	809.972477	-64.373606	335.995018	722.995069	-82.816040	284.777198	653.538921	-77.546431	352.020024	720.712930	-119.219043	224.714421	532.582305	-78.375171	152.700199	503.502278	-106.655350	433.940884	431.207678	-119.952441	352.060162	412.136626	-49.161588	39.651755	986.725342	-415.270202	111.556439	936.928423	-419.008791	139.922647	958.207500	-409.898388	148.891160	854.479684	-414.567266	247.627657	700.560503	-381.615027	233.455554	684.051986	-283.728042	156.628802	580.792147	-404.669227	121.164698	504.691738	-384.744337	50.897666	449.128659	-395.174811	124.001590	506.482509	-342.847819	-38.963628	349.019227	-393.898571	-118.522053	333.048634	-360.946833	149.002441	223.116594	-354.920360	65.782234	225.831673	-419.835898	-257.726175	965.020382	-231.925373	-75.594932	83.552238	-437.094324	-81.838625	79.216348	-39.503567	
3	0.0150	447.247941	1434.547445	-74.431839	432.570205	1428.419871	-369.752955	424.082281	1462.004341	-223.519782	390.389381	1323.209160	-220.276148	463.740511	1110.225080	62.974226	689.697947	935.998002	-38.548086	465.949955	1118.981109	-505.307759	697.796787	936.348156	-425.260552	-127.500736	1203.319473	-241.089538	42.255052	1243.227370	-376.963752	37.130442	1226.545818	-86.935269	70.354337	1161.231575	-351.869910	50.339171	1177.214799	-102.554631	-100.578212	1241.009603	-188.661183	-83.116033	1249.585542	-296.678797	-21.970133	1124.383733	-40.162999	-21.945985	1092.038856	-409.659949	122.838676	1072.727921	-41.713286	209.080262	1063.437223	-55.051608	281.660927	1018.282875	-52.837391	218.223179	1094.130161	-74.049546	401.610501	943.120885	-88.988838	395.650672	928.040471	-194.849330	350.079013	810.019403	-64.363643	335.999491	723.055628	-82.795066	284.777060	653.592913	-77.539886	352.012246	720.763876	-119.215440	224.692397	532.649689	-78.360309	152.651251	503.611641	-106.611825	433.905548	431.255153	-119.954397	352.013585	412.195488	-49.166065	39.600123	986.688145	-415.277115	111.518934	936.899912	-419.015962	139.890865	958.155999	-409.911928	148.847387	854.457559	-414.584466	247.572717	700.518250	-381.587915	233.371652	684.028596	-283.710591	156.584623	580.769471	-404.661512	121.110658	504.644010	-384.749547	50.870881	449.063867	-395.216943	123.959636	506.460620	-342.822517	-38.986941	348.946214	-393.893875	-118.530080	332.952518	-360.946747	149.034959	223.097042	-354.929431	65.811839	225.786512	-419.834193	-257.724973	965.016330	-231.921935	-75.591451	83.557474	-437.087195	-81.836803	79.218032	-39.514983	
4	0.0200	447.244855	1434.563154	-74.471590	432.010252	1426.249065	-361.720731	424.162002	1460.911668	-218.107437	390.410753	1323.182254	-220.298532	462.827400	1111.118167	64.280330	689.729318	935.961320	-38.588634	466.016662	1118.902613	-505.306553	697.941342	936.800568	-425.714979	-127.531604	1203.322146	-241.125536	37.476999	1238.178903	-364.212350	36.947887	1226.507233	-87.005704	70.264363	1161.092757	-351.882284	50.324614	1177.236808	-102.564108	-100.600340	1241.030007	-188.697481	-83.155857	1249.602242	-296.696070	-21.975445	1124.395935	-40.195075	-21.984310	1092.036918	-409.690719	122.714542	1072.877760	-40.399997	209.049290	1063.514982	-55.064244	281.650751	1018.324667	-52.858240	218.153939	1093.955464	-74.387269	401.607053	943.160871	-89.002211	395.648693	928.089290	-194.835785	350.091948	810.070644	-64.363013	343.915029	723.770775	-77.413199	284.794016	653.557784	-77.521874	352.064971	720.605647	-119.409485	224.295397	533.457578	-77.350708	152.545326	503.762455	-106.542831	433.602869	431.599950	-119.340114	352.016322	412.202616	-49.162207	39.556481	986.677754	-415.314457	111.806989	935.726490	-418.057450	139.847992	958.189292	-409.976855	148.581851	854.764852	-414.396838	247.519332	700.487967	-381.553670	233.357174	683.986684	-283.660465	156.547367	580.731497	-404.640238	121.161722	504.484970	-384.779372	50.863266	449.024365	-395.216439	124.822940	506.405739	-342.704674	-39.009227	348.867118	-393.898283	-118.534662	332.852981	-360.948022	149.048495	223.068562	-354.919328	65.828237	225.738366	-419.850869	-257.846665	965.098258	-232.455921	-75.587755	83.546027	-437.093034	-81.837562	79.227981	-39.508658	
